<svg xmlns="http://www.w3.org/2000/svg" viewBox="0 0 800 320" role="img" aria-label="차량 실루엣">
  <defs>
    <linearGradient id="b" x1="0" y1="0" x2="0" y2="1">
      <stop offset="0" stop-color="#ffffff" stop-opacity="0.96"/>
      <stop offset="0.5" stop-color="#cdd9e4" stop-opacity="0.92"/>
      <stop offset="1" stop-color="#7d909f" stop-opacity="0.9"/>
    </linearGradient>
    <linearGradient id="g" x1="0" y1="0" x2="0" y2="1">
      <stop offset="0" stop-color="#9fd9ec" stop-opacity="0.55"/>
      <stop offset="1" stop-color="#13344a" stop-opacity="0.7"/>
    </linearGradient>
  </defs>
  <!-- floor reflection -->
  <ellipse cx="400" cy="250" rx="300" ry="16" fill="#0aa6d0" opacity="0.35"/>
  <!-- body -->
  <path d="M96 232
           C96 206 124 196 162 191
           C206 152 268 134 346 132
           C434 130 506 151 560 181
           C610 186 650 200 662 224
           C668 238 662 250 650 252
           L128 252 C104 252 96 246 96 232 Z"
        fill="url(#b)"/>
  <path d="M128 252 L650 252 C662 250 668 238 662 224 C652 240 506 246 372 246 C246 246 152 242 128 232 Z"
        fill="#1a2735" opacity="0.45"/>
  <!-- glass -->
  <path d="M218 168 C266 146 314 136 364 136 C422 136 480 152 520 178 C480 182 432 184 374 184 C316 184 266 178 218 168 Z"
        fill="url(#g)"/>
  <path d="M368 136 L374 184 L362 184 L360 136 Z" fill="#0b1c2c" opacity="0.55"/>
  <path d="M168 191 C232 180 500 180 572 200" fill="none" stroke="#ffffff" stroke-width="2" opacity="0.7"/>
  <!-- headlight -->
  <circle cx="650" cy="222" r="6" fill="#eafdff"/>
  <rect x="100" y="214" width="14" height="9" rx="3" fill="#ff5a5f" opacity="0.85"/>
  <!-- wheels -->
  <g>
    <circle cx="216" cy="252" r="42" fill="#0a0f17"/>
    <circle cx="216" cy="252" r="42" fill="none" stroke="#2a3a4c" stroke-width="3"/>
    <circle cx="216" cy="252" r="21" fill="#16222f"/>
    <g stroke="#cdd9e4" stroke-width="3" opacity="0.9">
      <line x1="216" y1="233" x2="216" y2="271"/>
      <line x1="197" y1="252" x2="235" y2="252"/>
      <line x1="202" y1="238" x2="230" y2="266"/>
      <line x1="202" y1="266" x2="230" y2="238"/>
    </g>
    <circle cx="516" cy="252" r="42" fill="#0a0f17"/>
    <circle cx="516" cy="252" r="42" fill="none" stroke="#2a3a4c" stroke-width="3"/>
    <circle cx="516" cy="252" r="21" fill="#16222f"/>
    <g stroke="#cdd9e4" stroke-width="3" opacity="0.9">
      <line x1="516" y1="233" x2="516" y2="271"/>
      <line x1="497" y1="252" x2="535" y2="252"/>
      <line x1="502" y1="238" x2="530" y2="266"/>
      <line x1="502" y1="266" x2="530" y2="238"/>
    </g>
  </g>
</svg>
